<?xml version="1.0" encoding="UTF-8" standalone="no"?>
<svg
   xmlns:osb="http://www.openswatchbook.org/uri/2009/osb"
   xmlns:dc="http://purl.org/dc/elements/1.1/"
   xmlns:cc="http://creativecommons.org/ns#"
   xmlns:rdf="http://www.w3.org/1999/02/22-rdf-syntax-ns#"
   xmlns:svg="http://www.w3.org/2000/svg"
   xmlns="http://www.w3.org/2000/svg"
   xmlns:sodipodi="http://sodipodi.sourceforge.net/DTD/sodipodi-0.dtd"
   xmlns:inkscape="http://www.inkscape.org/namespaces/inkscape"
   sodipodi:docname="drawing.svg"
   inkscape:version="1.0 (4035a4f, 2020-05-01)"
   id="svg8"
   version="1.1"
   viewBox="0 0 210 297"
   height="297mm"
   width="210mm">
  <defs
     id="defs2">
    <linearGradient
       osb:paint="solid"
       id="linearGradient3181">
      <stop
         id="stop3179"
         offset="0"
         style="stop-color:#000000;stop-opacity:1;" />
    </linearGradient>
    <marker
       inkscape:isstock="true"
       style="overflow:visible;"
       id="Arrow1Lend"
       refX="0.0"
       refY="0.0"
       orient="auto"
       inkscape:stockid="Arrow1Lend">
      <path
         transform="scale(0.8) rotate(180) translate(12.5,0)"
         style="fill-rule:evenodd;stroke:#000000;stroke-width:1.0pt;"
         d="M 0.0,0.0 L 5.0,-5.0 L -12.5,0.0 L 5.0,5.0 L 0.0,0.0 z "
         id="path970" />
    </marker>
    <inkscape:perspective
       id="perspective10"
       inkscape:persp3d-origin="105 : 99 : 1"
       inkscape:vp_z="210 : 148.5 : 1"
       inkscape:vp_y="0 : 1000 : 0"
       inkscape:vp_x="-95.250005 : 331.44048 : 1"
       sodipodi:type="inkscape:persp3d" />
    <filter
       height="1.8606488"
       y="-0.43032441"
       width="2.8177755"
       x="-0.90888774"
       id="filter1209"
       style="color-interpolation-filters:sRGB"
       inkscape:collect="always">
      <feGaussianBlur
         id="feGaussianBlur1211"
         stdDeviation="10.276972"
         inkscape:collect="always" />
    </filter>
    <filter
       inkscape:collect="always"
       style="color-interpolation-filters:sRGB"
       id="filter1209-9"
       x="-0.90888774"
       width="2.8177755"
       y="-0.43032441"
       height="1.8606488">
      <feGaussianBlur
         inkscape:collect="always"
         stdDeviation="10.276972"
         id="feGaussianBlur1211-0" />
    </filter>
  </defs>
  <sodipodi:namedview
     inkscape:snap-to-guides="false"
     inkscape:snap-grids="false"
     inkscape:window-maximized="0"
     inkscape:window-y="1478"
     inkscape:window-x="955"
     inkscape:window-height="994"
     inkscape:window-width="1728"
     showgrid="true"
     inkscape:document-rotation="0"
     inkscape:current-layer="layer1"
     inkscape:document-units="mm"
     inkscape:cy="872.48943"
     inkscape:cx="474.70534"
     inkscape:zoom="1.1133701"
     inkscape:pageshadow="2"
     inkscape:pageopacity="0.0"
     borderopacity="1.0"
     bordercolor="#666666"
     pagecolor="#ffffff"
     id="base">
    <inkscape:grid
       id="grid120"
       type="xygrid" />
  </sodipodi:namedview>
  <metadata
     id="metadata5">
    <rdf:RDF>
      <cc:Work
         rdf:about="">
        <dc:format>image/svg+xml</dc:format>
        <dc:type
           rdf:resource="http://purl.org/dc/dcmitype/StillImage" />
        <dc:title />
      </cc:Work>
    </rdf:RDF>
  </metadata>
  <g
     id="layer1"
     inkscape:groupmode="layer"
     inkscape:label="Layer 1">
    <g
       inkscape:export-ydpi="41.290001"
       inkscape:export-xdpi="41.290001"
       inkscape:export-filename="/Users/tonibuenter/keyblock64.png"
       transform="translate(0,11.112501)"
       id="g1272">
      <path
         style="opacity:1;fill:#ffaf00;fill-opacity:1;fill-rule:evenodd;stroke:none;stroke-width:0.282222;stroke-linecap:round;stroke-miterlimit:4;stroke-dasharray:none;stop-color:#000000"
         d="m 130.21475,148.0279 26.50505,0.1448 -2.82069,5.1272 h -27.78125 z"
         id="path997"
         sodipodi:nodetypes="ccccc"
         inkscape:export-filename="/Users/tonibuenter/keyblock200.png"
         inkscape:export-xdpi="129.03645"
         inkscape:export-ydpi="129.03645" />
      <path
         style="opacity:1;fill:#dadada;fill-opacity:1;fill-rule:evenodd;stroke:#ff1919;stroke-width:1;stroke-linecap:round;stroke-miterlimit:4;stroke-dasharray:none;stroke-opacity:0;stop-color:#000000"
         d="m 153.89911,153.29991 2.82069,-5.12721 -0.17486,23.64804 -2.64583,9.26042 z"
         id="path999"
         sodipodi:nodetypes="ccccc"
         inkscape:export-filename="/Users/tonibuenter/keyblock200.png"
         inkscape:export-xdpi="129.03645"
         inkscape:export-ydpi="129.03645" />
      <rect
         y="144.74112"
         x="121.23254"
         height="39.36871"
         width="39.368706"
         id="rect1001"
         style="opacity:0.88499;fill:none;fill-rule:evenodd;stroke:none;stroke-width:0.631292;stroke-linecap:round;stroke-miterlimit:4;stroke-dasharray:none;stroke-opacity:1;stop-color:#000000"
         inkscape:export-filename="/Users/tonibuenter/keyblock200.png"
         inkscape:export-xdpi="129.03645"
         inkscape:export-ydpi="129.03645" />
      <path
         style="opacity:1;fill:#000000;fill-opacity:1;fill-rule:evenodd;stroke:#ff0f0f;stroke-width:0;stroke-linecap:round;stroke-linejoin:round;stroke-miterlimit:4;stroke-dasharray:none;stroke-dashoffset:0;stroke-opacity:0.9;stop-color:#000000"
         d="M 126.1,167.105 V 153.2 H 140.00498 153.91 v 13.905 13.905 H 140.00498 126.1 Z m 17.04212,7.54738 c -0.0461,-0.22494 -0.42348,-2.37833 -0.8385,-4.78532 -0.69579,-4.03527 -0.73495,-4.38733 -0.50241,-4.51746 0.59577,-0.33341 1.39777,-1.20413 1.55895,-1.69253 0.64643,-1.95868 -1.01342,-3.81792 -3.41619,-3.82657 -1.23268,-0.005 -1.9717,0.24839 -2.73243,0.93482 -1.01328,0.91431 -1.26664,2.03433 -0.70792,3.1295 0.27191,0.53301 0.89562,1.16821 1.45376,1.48056 0.21873,0.1224 0.16799,0.58066 -0.53129,4.79911 -0.42522,2.56508 -0.77179,4.71398 -0.77018,4.77532 0.002,0.0613 1.48056,0.11154 3.28653,0.11154 h 3.28358 z"
         id="path1109"
         inkscape:export-filename="/Users/tonibuenter/keyblock200.png"
         inkscape:export-xdpi="129.03645"
         inkscape:export-ydpi="129.03645" />
      <path
         style="opacity:1;fill:#ffffff;fill-opacity:1;fill-rule:evenodd;stroke:#ff0f0f;stroke-width:0;stroke-linecap:round;stroke-linejoin:round;stroke-miterlimit:4;stroke-dasharray:none;stroke-dashoffset:0;stroke-opacity:0.9;filter:url(#filter1209);stop-color:#000000"
         d="m 519.23273,661.4052 c -1.3574,-0.0609 -2.5091,-0.15189 -2.55932,-0.20212 -0.10872,-0.10871 0.068,-1.25178 2.30751,-14.92806 2.56541,-15.66632 2.94688,-18.24879 2.94688,-19.9499 0,-0.92882 -0.16299,-1.13662 -1.80181,-2.29727 -1.12061,-0.79364 -2.77131,-2.51654 -3.58369,-3.74044 -0.3152,-0.47487 -0.78085,-1.37807 -1.03477,-2.0071 -0.432,-1.07019 -0.46175,-1.27017 -0.46283,-3.11149 -0.001,-1.82605 0.0304,-2.0441 0.43644,-3.02736 0.64312,-1.55727 1.34425,-2.57593 2.72098,-3.95326 2.77059,-2.77179 5.2697,-3.79599 9.62904,-3.94624 3.32987,-0.11476 5.53627,0.30398 7.94684,1.50818 3.13049,1.56384 5.53491,4.39397 6.21752,7.31835 0.30114,1.29013 0.22601,3.99855 -0.14287,5.15029 -0.50921,1.5899 -2.86957,4.44763 -4.85655,5.87994 -1.57156,1.13284 -1.59652,1.16659 -1.59652,2.15871 0,1.19618 0.33271,3.65128 1.22137,9.01254 0.88877,5.36188 3.08893,18.06593 3.93158,22.70143 0.32948,1.81248 0.59905,3.36211 0.59905,3.44363 0,0.17268 -18.03364,0.1646 -21.91885,-0.01 z"
         id="path1111"
         transform="scale(0.26458333)"
         inkscape:export-filename="/Users/tonibuenter/keyblock200.png"
         inkscape:export-xdpi="129.03645"
         inkscape:export-ydpi="129.03645" />
      <path
         inkscape:export-ydpi="129.03645"
         inkscape:export-xdpi="129.03645"
         inkscape:export-filename="/Users/tonibuenter/keyblock200.png"
         transform="scale(0.26458333)"
         id="path1256"
         d="m 519.23273,661.4052 c -1.3574,-0.0609 -2.5091,-0.15189 -2.55932,-0.20212 -0.10872,-0.10871 0.068,-1.25178 2.30751,-14.92806 2.56541,-15.66632 2.94688,-18.24879 2.94688,-19.9499 0,-0.92882 -0.16299,-1.13662 -1.80181,-2.29727 -1.12061,-0.79364 -2.77131,-2.51654 -3.58369,-3.74044 -0.3152,-0.47487 -0.78085,-1.37807 -1.03477,-2.0071 -0.432,-1.07019 -0.46175,-1.27017 -0.46283,-3.11149 -0.001,-1.82605 0.0304,-2.0441 0.43644,-3.02736 0.64312,-1.55727 1.34425,-2.57593 2.72098,-3.95326 2.77059,-2.77179 5.2697,-3.79599 9.62904,-3.94624 3.32987,-0.11476 5.53627,0.30398 7.94684,1.50818 3.13049,1.56384 5.53491,4.39397 6.21752,7.31835 0.30114,1.29013 0.22601,3.99855 -0.14287,5.15029 -0.50921,1.5899 -2.86957,4.44763 -4.85655,5.87994 -1.57156,1.13284 -1.59652,1.16659 -1.59652,2.15871 0,1.19618 0.33271,3.65128 1.22137,9.01254 0.88877,5.36188 3.08893,18.06593 3.93158,22.70143 0.32948,1.81248 0.59905,3.36211 0.59905,3.44363 0,0.17268 -18.03364,0.1646 -21.91885,-0.01 z"
         style="opacity:1;fill:#ffffff;fill-opacity:1;fill-rule:evenodd;stroke:#ff0f0f;stroke-width:0;stroke-linecap:round;stroke-linejoin:round;stroke-miterlimit:4;stroke-dasharray:none;stroke-dashoffset:0;stroke-opacity:0.9;stop-color:#000000" />
    </g>
    <circle
       r="0"
       cy="-206.86855"
       cx="-20.408554"
       style="fill:#000000;stroke:#000000;stroke-width:0.264583"
       id="path116" />
    <g
       transform="translate(-3.0585134,9.1755403)"
       id="g948"
       inkscape:export-filename="/Users/tonibuenter/g948.png"
       inkscape:export-xdpi="41.291679"
       inkscape:export-ydpi="41.291679">
      <g
         style="stroke-width:0.282222;stroke-miterlimit:4;stroke-dasharray:none"
         inkscape:export-filename="/Users/tonibuenter/g3228.png"
         id="g3228"
         inkscape:export-xdpi="424.95673"
         inkscape:export-ydpi="424.95673">
        <path
           id="path3193"
           d="m 54.239583,146.18229 v -13.89062 h 13.890624 13.890626 v 13.89062 13.89063 H 68.130207 54.239583 Z m 19.528885,11.19483 c 0,-0.0289 -0.854355,-2.99646 -1.898568,-6.59468 -1.044212,-3.59818 -1.909525,-6.58064 -1.922919,-6.6277 -0.01835,-0.0645 0.06748,-0.12289 0.348045,-0.23702 2.018148,-0.82081 3.504354,-2.12915 3.885317,-3.42031 0.130638,-0.44276 0.144273,-1.54201 0.02518,-2.02914 -0.32523,-1.33019 -1.481054,-2.44283 -3.184001,-3.06504 -1.029914,-0.37631 -1.970416,-0.52901 -3.249787,-0.52764 -3.729335,0.005 -6.261375,1.8474 -6.268112,4.56342 -0.002,0.83228 0.240757,1.52962 0.781771,2.24512 0.614223,0.81228 1.8018,1.69003 2.989621,2.20962 0.219788,0.0961 0.390006,0.20132 0.378259,0.2337 -0.07567,0.2087 -3.82766,13.1833 -3.82766,13.23627 0,0.0516 1.301322,0.0659 5.97143,0.0659 3.838208,0 5.971432,-0.0187 5.971432,-0.0525 z"
           style="opacity:0.88499;fill:#bfbfbf;fill-opacity:1;fill-rule:evenodd;stroke:none;stroke-width:0.282222;stroke-linecap:round;stroke-miterlimit:4;stroke-dasharray:none;stop-color:#000000" />
        <path
           sodipodi:nodetypes="ccccc"
           id="path3195"
           d="m 58.336473,127.01967 26.505051,0.1448 -2.820691,5.1272 h -27.78125 z"
           style="opacity:0.88499;fill:#dad8d8;fill-opacity:1;fill-rule:evenodd;stroke:none;stroke-width:0.282222;stroke-linecap:round;stroke-miterlimit:4;stroke-dasharray:none;stop-color:#000000" />
        <path
           sodipodi:nodetypes="ccccc"
           id="path3197"
           d="m 82.020833,132.29167 2.820691,-5.1272 -0.174857,23.64803 -2.64583,9.26042 z"
           style="opacity:0.88499;fill:#757575;fill-opacity:1;fill-rule:evenodd;stroke:none;stroke-width:0.282222;stroke-linecap:round;stroke-miterlimit:4;stroke-dasharray:none;stop-color:#000000" />
      </g>
      <rect
         y="123.73289"
         x="49.354267"
         height="39.36871"
         width="39.368706"
         id="rect941"
         style="opacity:0.88499;fill:none;fill-rule:evenodd;stroke:none;stroke-width:0.631292;stroke-linecap:round;stroke-miterlimit:4;stroke-dasharray:none;stroke-opacity:1;stop-color:#000000" />
    </g>
    <circle
       r="10"
       cy="162.26703"
       cx="94.596947"
       id="path1075"
       style="opacity:1;fill:none;fill-opacity:1;fill-rule:evenodd;stroke:#ff0000;stroke-width:0.7;stroke-linecap:round;stroke-linejoin:round;stroke-miterlimit:4;stroke-dasharray:none;stroke-dashoffset:0;stroke-opacity:0;stop-color:#000000" />
    <path
       style="opacity:1;fill:#000000;fill-opacity:1;fill-rule:evenodd;stroke:none;stroke-width:0.282223;stroke-linecap:round;stroke-miterlimit:4;stroke-dasharray:none;stop-color:#000000"
       d="m 42.05435,214.82794 26.50505,0.1448 -2.82069,5.1272 H 37.95746 Z"
       id="path997-1"
       sodipodi:nodetypes="ccccc"
       inkscape:export-filename="/Users/tonibuenter/keyblock200d.png"
       inkscape:export-xdpi="129.03645"
       inkscape:export-ydpi="129.03645" />
    <path
       style="opacity:1;fill:#dadada;fill-opacity:1;fill-rule:evenodd;stroke:#ff1919;stroke-width:1;stroke-linecap:round;stroke-miterlimit:4;stroke-dasharray:none;stroke-opacity:0;stop-color:#000000"
       d="m 65.73871,220.09995 2.82069,-5.12721 -0.17486,23.64804 -2.64583,9.26042 z"
       id="path999-6"
       sodipodi:nodetypes="ccccc"
       inkscape:export-filename="/Users/tonibuenter/keyblock200d.png"
       inkscape:export-xdpi="129.03645"
       inkscape:export-ydpi="129.03645" />
    <rect
       y="211.54115"
       x="33.072132"
       height="39.36871"
       width="39.368706"
       id="rect1001-4"
       style="opacity:0.88499;fill:none;fill-rule:evenodd;stroke:none;stroke-width:0.631293;stroke-linecap:round;stroke-miterlimit:4;stroke-dasharray:none;stroke-opacity:1;stop-color:#000000"
       inkscape:export-filename="/Users/tonibuenter/keyblock200d.png"
       inkscape:export-xdpi="129.03645"
       inkscape:export-ydpi="129.03645" />
    <path
       style="opacity:1;fill:#ffaf00;fill-opacity:1;fill-rule:evenodd;stroke:#ff0f0f;stroke-width:0;stroke-linecap:round;stroke-linejoin:round;stroke-miterlimit:4;stroke-dasharray:none;stroke-dashoffset:0;stroke-opacity:0.9;stop-color:#000000"
       d="m 37.9396,233.90504 v -13.905 H 51.84458 65.7496 v 13.905 13.905 H 51.84458 37.9396 Z m 17.04212,7.54738 c -0.0461,-0.22494 -0.42348,-2.37833 -0.8385,-4.78532 -0.69579,-4.03527 -0.73495,-4.38733 -0.50241,-4.51746 0.59577,-0.33341 1.39777,-1.20413 1.55895,-1.69253 0.64643,-1.95868 -1.01342,-3.81792 -3.41619,-3.82657 -1.23268,-0.005 -1.9717,0.24839 -2.73243,0.93482 -1.01328,0.91431 -1.26664,2.03433 -0.70792,3.1295 0.27191,0.53301 0.89562,1.16821 1.45376,1.48056 0.21873,0.1224 0.16799,0.58066 -0.53129,4.79911 -0.42522,2.56508 -0.77179,4.71398 -0.77018,4.77532 0.002,0.0613 1.48056,0.11154 3.28653,0.11154 h 3.28358 z"
       id="path1109-4"
       inkscape:export-filename="/Users/tonibuenter/keyblock200d.png"
       inkscape:export-xdpi="129.03645"
       inkscape:export-ydpi="129.03645" />
    <path
       transform="matrix(0.26458333,0,0,0.26458333,33.07214,211.54116)"
       style="opacity:1;fill:#ffffff;fill-opacity:1;fill-rule:evenodd;stroke:#ff0f0f;stroke-width:0;stroke-linecap:round;stroke-linejoin:round;stroke-miterlimit:4;stroke-dasharray:none;stroke-dashoffset:0;stroke-opacity:0.9;filter:url(#filter1209-9);stop-color:#000000"
       d="m 61.031013,114.35214 c -1.3574,-0.0609 -2.5091,-0.15189 -2.55932,-0.20212 -0.10872,-0.10871 0.068,-1.25178 2.30751,-14.928056 2.56541,-15.66632 2.94688,-18.24879 2.94688,-19.9499 0,-0.92882 -0.16299,-1.13662 -1.80181,-2.29727 -1.12061,-0.79364 -2.77131,-2.51654 -3.58369,-3.74044 -0.3152,-0.47487 -0.78085,-1.37807 -1.03477,-2.0071 -0.432,-1.07019 -0.46175,-1.27017 -0.46283,-3.11149 -10e-4,-1.82605 0.0304,-2.0441 0.43644,-3.02736 0.64312,-1.55727 1.34425,-2.57593 2.72098,-3.95326 2.77059,-2.77179 5.2697,-3.79599 9.62904,-3.94624 3.32987,-0.11476 5.53627,0.30398 7.94684,1.50818 3.13049,1.56384 5.53491,4.39397 6.21752,7.31835 0.30114,1.29013 0.22601,3.99855 -0.14287,5.15029 -0.50921,1.5899 -2.86957,4.44763 -4.85655,5.87994 -1.57156,1.13284 -1.59652,1.16659 -1.59652,2.15871 0,1.19618 0.33271,3.65128 1.22137,9.01254 0.88877,5.36188 3.08893,18.065926 3.93158,22.701426 0.32948,1.81248 0.59905,3.36211 0.59905,3.44363 0,0.17268 -18.03364,0.1646 -21.91885,-0.01 z"
       id="path1111-8"
       inkscape:export-filename="/Users/tonibuenter/keyblock200d.png"
       inkscape:export-xdpi="129.03645"
       inkscape:export-ydpi="129.03645" />
    <g
       transform="translate(-18.536064,-49.667146)"
       id="g1300">
      <path
         inkscape:export-ydpi="129.03645"
         inkscape:export-xdpi="129.03645"
         inkscape:export-filename="/Users/tonibuenter/keyblock200.png"
         sodipodi:nodetypes="ccccc"
         id="path1274"
         d="m 162.05876,282.27888 26.50505,0.1448 -2.82069,5.1272 h -27.78125 z"
         style="fill:#ffaf00;fill-opacity:1;fill-rule:evenodd;stroke:none;stroke-width:0.282222;stroke-linecap:round;stroke-miterlimit:4;stroke-dasharray:none;stop-color:#000000" />
      <path
         inkscape:export-ydpi="129.03645"
         inkscape:export-xdpi="129.03645"
         inkscape:export-filename="/Users/tonibuenter/keyblock200.png"
         sodipodi:nodetypes="ccccc"
         id="path1276"
         d="m 185.74312,287.55089 2.82069,-5.12721 -0.17486,23.64804 -2.64583,9.26042 z"
         style="fill:#dadada;fill-opacity:1;fill-rule:evenodd;stroke:#ff1919;stroke-width:1;stroke-linecap:round;stroke-miterlimit:4;stroke-dasharray:none;stroke-opacity:0;stop-color:#000000" />
      <rect
         inkscape:export-ydpi="129.03645"
         inkscape:export-xdpi="129.03645"
         inkscape:export-filename="/Users/tonibuenter/keyblock200.png"
         style="opacity:0.88499;fill:none;fill-rule:evenodd;stroke:none;stroke-width:0.568162;stroke-linecap:round;stroke-miterlimit:4;stroke-dasharray:none;stroke-opacity:0.9;stop-color:#000000"
         id="rect1278"
         width="35.431839"
         height="35.431835"
         x="156.89038"
         y="280.99524" />
      <path
         inkscape:export-ydpi="129.03645"
         inkscape:export-xdpi="129.03645"
         inkscape:export-filename="/Users/tonibuenter/keyblock200.png"
         id="path1280"
         d="m 157.94401,301.35598 v -13.905 h 13.90498 13.90502 v 13.905 13.905 h -13.90502 -13.90498 z m 17.04212,7.54738 c -0.0461,-0.22494 -0.42348,-2.37833 -0.8385,-4.78532 -0.69579,-4.03527 -0.73495,-4.38733 -0.50241,-4.51746 0.59577,-0.33341 1.39777,-1.20413 1.55895,-1.69253 0.64643,-1.95868 -1.01342,-3.81792 -3.41619,-3.82657 -1.23268,-0.005 -1.9717,0.24839 -2.73243,0.93482 -1.01328,0.91431 -1.26664,2.03433 -0.70792,3.1295 0.27191,0.53301 0.89562,1.16821 1.45376,1.48056 0.21873,0.1224 0.16799,0.58066 -0.53129,4.79911 -0.42522,2.56508 -0.77179,4.71398 -0.77018,4.77532 0.002,0.0613 1.48056,0.11154 3.28653,0.11154 h 3.28358 z"
         style="fill:#000000;fill-opacity:1;fill-rule:evenodd;stroke:#ff0f0f;stroke-width:0;stroke-linecap:round;stroke-linejoin:round;stroke-miterlimit:4;stroke-dasharray:none;stroke-dashoffset:0;stroke-opacity:0.9;stop-color:#000000" />
      <path
         inkscape:export-ydpi="129.03645"
         inkscape:export-xdpi="129.03645"
         inkscape:export-filename="/Users/tonibuenter/keyblock200.png"
         transform="matrix(0.26458333,0,0,0.26458333,31.844007,134.25098)"
         id="path1282"
         d="m 519.23273,661.4052 c -1.3574,-0.0609 -2.5091,-0.15189 -2.55932,-0.20212 -0.10872,-0.10871 0.068,-1.25178 2.30751,-14.92806 2.56541,-15.66632 2.94688,-18.24879 2.94688,-19.9499 0,-0.92882 -0.16299,-1.13662 -1.80181,-2.29727 -1.12061,-0.79364 -2.77131,-2.51654 -3.58369,-3.74044 -0.3152,-0.47487 -0.78085,-1.37807 -1.03477,-2.0071 -0.432,-1.07019 -0.46175,-1.27017 -0.46283,-3.11149 -0.001,-1.82605 0.0304,-2.0441 0.43644,-3.02736 0.64312,-1.55727 1.34425,-2.57593 2.72098,-3.95326 2.77059,-2.77179 5.2697,-3.79599 9.62904,-3.94624 3.32987,-0.11476 5.53627,0.30398 7.94684,1.50818 3.13049,1.56384 5.53491,4.39397 6.21752,7.31835 0.30114,1.29013 0.22601,3.99855 -0.14287,5.15029 -0.50921,1.5899 -2.86957,4.44763 -4.85655,5.87994 -1.57156,1.13284 -1.59652,1.16659 -1.59652,2.15871 0,1.19618 0.33271,3.65128 1.22137,9.01254 0.88877,5.36188 3.08893,18.06593 3.93158,22.70143 0.32948,1.81248 0.59905,3.36211 0.59905,3.44363 0,0.17268 -18.03364,0.1646 -21.91885,-0.01 z"
         style="fill:#ffffff;fill-opacity:1;fill-rule:evenodd;stroke:#ff0f0f;stroke-width:0;stroke-linecap:round;stroke-linejoin:round;stroke-miterlimit:4;stroke-dasharray:none;stroke-dashoffset:0;stroke-opacity:0.9;filter:url(#filter1209);stop-color:#000000" />
      <path
         style="fill:#ffffff;fill-opacity:1;fill-rule:evenodd;stroke:#ff0f0f;stroke-width:0;stroke-linecap:round;stroke-linejoin:round;stroke-miterlimit:4;stroke-dasharray:none;stroke-dashoffset:0;stroke-opacity:0.9;stop-color:#000000"
         d="m 169.22433,309.24777 c -0.35914,-0.0161 -0.66386,-0.0402 -0.67715,-0.0535 -0.0288,-0.0288 0.018,-0.3312 0.61053,-3.94972 0.67876,-4.14504 0.7797,-4.82832 0.7797,-5.27841 0,-0.24575 -0.0431,-0.30073 -0.47673,-0.60782 -0.2965,-0.20998 -0.73325,-0.66583 -0.94819,-0.98965 -0.0834,-0.12565 -0.2066,-0.36462 -0.27378,-0.53105 -0.1143,-0.28315 -0.12217,-0.33606 -0.12246,-0.82325 -2.6e-4,-0.48314 0.008,-0.54083 0.11548,-0.80099 0.17016,-0.41202 0.35566,-0.68154 0.71992,-1.04596 0.73305,-0.73337 1.39428,-1.00436 2.54769,-1.04411 0.88102,-0.0304 1.4648,0.0804 2.1026,0.39904 0.82827,0.41376 1.46444,1.16257 1.64505,1.93631 0.0797,0.34135 0.0598,1.05795 -0.0378,1.36268 -0.13473,0.42066 -0.75924,1.17677 -1.28496,1.55574 -0.41581,0.29973 -0.42242,0.30866 -0.42242,0.57115 0,0.31649 0.088,0.96607 0.32316,2.38457 0.23515,1.41867 0.81728,4.77995 1.04023,6.00642 0.0872,0.47955 0.1585,0.88956 0.1585,0.91113 0,0.0457 -4.7714,0.0435 -5.79937,-0.003 z"
         id="path1284"
         inkscape:export-filename="/Users/tonibuenter/keyblock200.png"
         inkscape:export-xdpi="129.03645"
         inkscape:export-ydpi="129.03645" />
    </g>
  </g>
</svg>
