<?xml version="1.0" encoding="UTF-8"?><svg id="l" xmlns="http://www.w3.org/2000/svg" width="64" height="64" viewBox="0 0 64 64"><path d="M26,34.847v-2.569c0-3.303-6.072-5.557-9.464-5.557h-6.127c-3.337,0-9.409,2.254-9.409,5.557v2.569c0,.629.547,1.153,1.204,1.153h22.593c.656,0,1.204-.524,1.204-1.153h0Z" fill="#5294d5" fill-rule="evenodd"/><rect x="9.696" y="21.928" width="7.609" height="7.686" fill="#efac92"/><path d="M7.333,16.435h12.335c.795,0,1.441.646,1.441,1.441v.024c0,1.591-1.292,2.882-2.882,2.882h-9.452c-1.591,0-2.882-1.292-2.882-2.882v-.024c0-.795.646-1.441,1.441-1.441Z" fill="#efac92"/><path d="M13.473,11.557h0c3.619,0,6.549,2.419,6.549,5.389v1.925c0,2.969-2.93,7.423-6.549,7.423h0c-3.562,0-6.549-4.454-6.549-7.423v-1.925c0-2.969,2.987-5.389,6.549-5.389h0Z" fill="#f7cfb8" fill-rule="evenodd"/><path d="M13.473,11.557c-.175,0-.348.01-.521.022,3.379.223,6.037,2.62,6.037,5.538v1.986c0,2.352-1.73,5.6-4.171,6.985,2.973-.907,5.203-4.626,5.203-7.217v-1.925c0-2.969-2.93-5.389-6.549-5.389Z" fill="#efac92" fill-rule="evenodd"/><path d="M21.028,10.179c-.157-.07-.325-.082-.476-.141,0-.013.003-.029.004-.041.047-1.245-.041-1.225-.792-1.225-1.567,0-2.517-1.032-6.199-1.032-2.997,0-4.448.986-5.079,1.63-1.133,0-2.051.918-2.051,2.051v6.645c0,.3.243.543.543.543s.543-.243.543-.543v-1.63c0-.48.311-.888.743-1.032.362-.121.724-.256,1.015-.503.639-.543.959-1.183.959-1.183,0,0,1.087,1.63,3.261,1.63h4.348c.9,0,1.63.73,1.63,1.63v1.63c0,.3.243.543.543.543s.543-.243.543-.543v-5.984c.519-.534,1.087-1.29,1.087-1.625q0-.543-.624-.821Z" fill="#d55846" fill-rule="evenodd"/><path d="M21.028,10.179c-.157-.07-.325-.082-.476-.141,0-.013.003-.029.004-.041.047-1.245-.041-1.225-.792-1.225-1.567,0-2.517-1.032-6.199-1.032-.172,0-.338.004-.5.01,3.2.102,3.848,1.62,5.327,1.62.751,0,1.077,0,1.077.627,0,.012-.003.028-.004.041.152.059.319.071.476.141q.624.278.624.821c0,.335-.568,1.091-1.087,1.625v5.984c0,.3.243.543.543.543s.543-.243.543-.543v-5.984c.519-.534,1.087-1.29,1.087-1.625q0-.543-.624-.821Z" fill="#b04536" fill-rule="evenodd"/><path d="M9.813,25.716c-1.311,1.028-1.256,2.273-1.256,2.273.983,1.84,2.076,3.302,3.059,4.059.601-.812,1.256-1.624,1.857-2.436,0,0-2.458-1.515-3.66-3.897h0Z" fill="#457db3" fill-rule="evenodd"/><path d="M17.133,25.716c1.366,1.028,1.256,2.273,1.256,2.273-.929,1.84-2.076,3.302-3.005,4.059-.656-.812-1.256-1.624-1.912-2.436,0,0,2.513-1.515,3.66-3.897h0Z" fill="#457db3" fill-rule="evenodd"/><path d="M24.797,36c.656,0,1.203-.524,1.203-1.153v-2.569c0-1.377-1.058-2.571-2.535-3.497-.448,2.86-3.429,7.211-19.451,7.219h20.783Z" fill="#457db3" fill-rule="evenodd"/><path d="M55,34.847v-2.569c0-3.303-6.072-5.557-9.464-5.557h-6.127c-3.337,0-9.409,2.254-9.409,5.557v2.569c0,.629.547,1.153,1.204,1.153h22.593c.656,0,1.204-.524,1.204-1.153h0Z" fill="#6ce480" fill-rule="evenodd"/><rect x="38.696" y="21.928" width="7.609" height="7.686" fill="#9b642f"/><path d="M36.333,16.435h12.335c.795,0,1.441.646,1.441,1.441v.024c0,1.591-1.292,2.882-2.882,2.882h-9.452c-1.591,0-2.882-1.292-2.882-2.882v-.024c0-.795.646-1.441,1.441-1.441Z" fill="#9b642f"/><path d="M42.473,11.557h0c3.619,0,6.549,2.419,6.549,5.389v1.925c0,2.969-2.93,7.423-6.549,7.423h0c-3.562,0-6.549-4.454-6.549-7.423v-1.925c0-2.969,2.987-5.389,6.549-5.389h0Z" fill="#ad733c" fill-rule="evenodd"/><path d="M42.473,11.557c-.175,0-.348.01-.521.022,3.379.223,6.037,2.62,6.037,5.538v1.986c0,2.352-1.73,5.6-4.171,6.985,2.973-.907,5.203-4.626,5.203-7.217v-1.925c0-2.969-2.93-5.389-6.549-5.389Z" fill="#9b642f" fill-rule="evenodd"/><path d="M50.028,10.179c-.157-.07-.325-.082-.476-.141,0-.013.003-.029.004-.041.047-1.245-.041-1.225-.792-1.225-1.567,0-2.517-1.032-6.199-1.032-2.997,0-4.448.986-5.079,1.63-1.133,0-2.051.918-2.051,2.051v6.645c0,.3.243.543.543.543s.543-.243.543-.543v-1.63c0-.48.311-.888.743-1.032.362-.121.724-.256,1.015-.503.639-.543.959-1.183.959-1.183,0,0,1.087,1.63,3.261,1.63h4.348c.9,0,1.63.73,1.63,1.63v1.63c0,.3.243.543.543.543s.543-.243.543-.543v-5.984c.519-.534,1.087-1.29,1.087-1.625q0-.543-.624-.821Z" fill="#eac546" fill-rule="evenodd"/><path d="M50.028,10.179c-.157-.07-.325-.082-.476-.141,0-.013.003-.029.004-.041.047-1.245-.041-1.225-.792-1.225-1.567,0-2.517-1.032-6.199-1.032-.172,0-.338.004-.5.01,3.2.102,3.848,1.62,5.327,1.62.751,0,1.077,0,1.077.627,0,.012-.003.028-.004.041.152.059.319.071.476.141q.624.278.624.821c0,.335-.568,1.091-1.087,1.625v5.984c0,.3.243.543.543.543s.543-.243.543-.543v-5.984c.519-.534,1.087-1.29,1.087-1.625q0-.543-.624-.821Z" fill="#e69f3d" fill-rule="evenodd"/><path d="M38.813,25.716c-1.311,1.028-1.256,2.273-1.256,2.273.983,1.84,2.076,3.302,3.059,4.059.601-.812,1.256-1.624,1.857-2.436,0,0-2.458-1.515-3.66-3.897h0Z" fill="#5ec570" fill-rule="evenodd"/><path d="M46.133,25.716c1.366,1.028,1.256,2.273,1.256,2.273-.929,1.84-2.076,3.302-3.005,4.059-.656-.812-1.256-1.624-1.912-2.436,0,0,2.513-1.515,3.66-3.897h0Z" fill="#5ec570" fill-rule="evenodd"/><path d="M53.797,36c.656,0,1.203-.524,1.203-1.153v-2.569c0-1.377-1.058-2.571-2.535-3.497-.448,2.86-3.429,7.211-19.451,7.219h20.783Z" fill="#5ec570" fill-rule="evenodd"/><path d="M49,51.54v-4.315c0-5.548-10.201-9.335-15.899-9.335h-10.293c-5.606,0-15.807,3.787-15.807,9.335v4.315c0,1.057.919,1.938,2.022,1.938h37.956c1.103,0,2.022-.881,2.022-1.938h0Z" fill="#d55846" fill-rule="evenodd"/><rect x="21.609" y="29.836" width="12.783" height="12.912" fill="#efac92"/><path d="M17.217,20.608h21.565c1.104,0,2,.896,2,2v1.304c0,2.208-1.792,4-4,4h-17.565c-2.208,0-4-1.792-4-4v-1.304c0-1.104.896-2,2-2Z" fill="#efac92"/><path d="M27.954,12.414h0c6.08,0,11.002,4.065,11.002,9.053v3.233c0,4.988-4.922,12.471-11.002,12.471h0c-5.984,0-11.002-7.483-11.002-12.471v-3.233c0-4.988,5.019-9.053,11.002-9.053h0Z" fill="#f7cfb8" fill-rule="evenodd"/><path d="M27.954,12.414c-.295,0-.585.018-.875.037,5.677.374,10.143,4.402,10.143,9.303v3.336c0,3.952-2.907,9.408-7.007,11.734,4.994-1.523,8.742-7.772,8.742-12.124v-3.233c0-4.988-4.922-9.053-11.002-9.053Z" fill="#efac92" fill-rule="evenodd"/><path d="M40.647,10.098c-.265-.118-.545-.138-.8-.238.001-.022.005-.048.006-.069.078-2.091-.068-2.057-1.331-2.057-2.632,0-4.228-1.734-10.414-1.734-5.035,0-7.473,1.657-8.532,2.738-1.903,0-3.445,1.542-3.445,3.445v11.164c0,.504.409.913.913.913s.913-.409.913-.913v-2.739c0-.807.523-1.491,1.249-1.733.608-.203,1.216-.43,1.705-.845,1.074-.913,1.611-1.987,1.611-1.987,0,0,1.826,2.739,5.478,2.739h7.304c1.513,0,2.739,1.226,2.739,2.739v2.739c0,.504.409.913.913.913s.913-.409.913-.913v-10.053c.871-.897,1.826-2.167,1.826-2.73q0-.913-1.049-1.38Z" fill="#3a4a5c" fill-rule="evenodd"/><path d="M40.647,10.098c-.265-.118-.545-.138-.8-.238.001-.022.005-.048.006-.069.078-2.091-.068-2.057-1.331-2.057-2.632,0-4.228-1.734-10.414-1.734-.289,0-.568.007-.84.017,5.376.172,6.464,2.722,8.95,2.722,1.262,0,1.809,0,1.809,1.053,0,.021-.005.047-.006.069.255.1.536.12.8.238q1.049.467,1.049,1.38c0,.563-.955,1.833-1.826,2.73v10.053c0,.504.409.913.913.913s.913-.409.913-.913v-10.053c.871-.897,1.826-2.167,1.826-2.73q0-.913-1.049-1.38Z" fill="#2a3441" fill-rule="evenodd"/><path d="M21.805,36.201c-2.203,1.728-2.111,3.819-2.111,3.819,1.652,3.092,3.487,5.547,5.139,6.82,1.01-1.364,2.111-2.728,3.12-4.092,0,0-4.13-2.546-6.149-6.547h0Z" fill="#b04536" fill-rule="evenodd"/><path d="M34.103,36.201c2.294,1.728,2.111,3.819,2.111,3.819-1.56,3.092-3.487,5.547-5.048,6.82-1.101-1.364-2.111-2.728-3.212-4.092,0,0,4.222-2.546,6.149-6.547h0Z" fill="#b04536" fill-rule="evenodd"/><path d="M46.978,53.478c1.103,0,2.022-.881,2.022-1.938v-4.315c0-2.314-1.777-4.32-4.26-5.874-.753,4.804-5.76,12.114-32.678,12.127h34.916Z" fill="#b04536" fill-rule="evenodd"/><polygon points="25 55 27 53 29 55 31 53 33 55 35 53 37 55 43 55 43 47 21 47 17 51 21 55 23 53 25 55" fill="#eac546"/><path d="M43,56h-6c-.265,0-.52-.105-.707-.293l-1.293-1.293-1.293,1.293c-.391.391-1.023.391-1.414,0l-1.293-1.293-1.293,1.293c-.391.391-1.023.391-1.414,0l-1.293-1.293-1.293,1.293c-.391.391-1.023.391-1.414,0l-1.293-1.293-1.293,1.293c-.391.391-1.023.391-1.414,0l-4-4c-.391-.391-.391-1.023,0-1.414l4-4c.188-.188.442-.293.707-.293h22c.552,0,1,.447,1,1v8c0,.553-.448,1-1,1ZM37.414,54h4.586v-6h-20.586l-3,3,2.586,2.586,1.293-1.293c.391-.391,1.023-.391,1.414,0l1.293,1.293,1.293-1.293c.391-.391,1.023-.391,1.414,0l1.293,1.293,1.293-1.293c.391-.391,1.023-.391,1.414,0l1.293,1.293,1.293-1.293c.391-.391,1.023-.391,1.414,0l1.707,1.707Z" fill="#eac546"/><path d="M42,50h-17c-.552,0-1-.447-1-1s.448-1,1-1h17c.552,0,1,.447,1,1s-.448,1-1,1Z" fill="#e69f3d"/><circle cx="51" cy="51" r="11" fill="#eac546"/><circle cx="56" cy="51" r="2" fill="#fff"/><path d="M59.498,44.016c.321,1.107.502,2.273.502,3.484,0,6.904-5.596,12.5-12.5,12.5-1.21,0-2.377-.181-3.484-.502,1.9,1.563,4.332,2.502,6.984,2.502,6.075,0,11-4.925,11-11,0-2.652-.939-5.084-2.502-6.984Z" fill="#e69f3d"/></svg>