<?xml version="1.0" encoding="UTF-8"?><svg id="q" xmlns="http://www.w3.org/2000/svg" width="64" height="64" viewBox="0 0 64 64"><path d="M32.72,29.087H12.28c-1.809,0-3.28-1.472-3.28-3.28v-10.307c0-7.444,6.056-13.5,13.5-13.5s13.5,6.056,13.5,13.5v10.307c0,1.809-1.472,3.28-3.28,3.28ZM15,23.087h15v-7.587c0-4.136-3.364-7.5-7.5-7.5s-7.5,3.364-7.5,7.5v7.587Z" fill="#3a4a5c"/><rect x="2" y="20" width="42" height="37" rx="4" ry="4" fill="#eac546"/><circle cx="23" cy="35" r="5" fill="#2a3441"/><path d="M20,38h6v7c0,1.656-1.344,3-3,3h0c-1.656,0-3-1.344-3-3v-7h0Z" fill="#2a3441"/><rect x="9" y="17" width="6" height="3" fill="#2a3441"/><rect x="30" y="17" width="6" height="3" fill="#2a3441"/><path d="M44,24c0,15.103-9.048,33.081-38,33.081h34c2.209,0,4-1.791,4-4v-29.081Z" fill="#e69f3d"/><path d="M47,30c-5.931,5.789-14,8-14,8,0,22,14,25,14,25,0,0,14-3.579,14-25,0,0-8.069-2.211-14-8Z" fill="#5294d5"/><path d="M47,64c-.07,0-.141-.007-.209-.022-.148-.032-14.791-3.431-14.791-25.978,0-.45.301-.845.735-.964.078-.021,7.899-2.22,13.566-7.751.389-.379,1.009-.379,1.397,0,5.68,5.545,13.487,7.73,13.565,7.751.435.119.736.514.736.964,0,21.943-14.605,25.931-14.752,25.969-.081.021-.164.031-.248.031ZM34.005,38.739c.278,18.931,11.178,22.728,12.976,23.225,1.789-.563,12.728-4.768,13.013-23.225-2.076-.67-8.055-2.873-12.994-7.366-4.939,4.493-10.919,6.696-12.995,7.366Z" fill="#5294d5"/><path d="M47,34v25s-10-2.33-10-19c0,0,5.764-1.61,10-6Z" fill="#edf0f1"/><path d="M57,40l-.976.732c-2.244-.676-5.986-2.099-9.024-4.732v23s11-3.068,11-18l-1-1Z" fill="#457db3"/><path d="M47,34v25s9.88-2.74,9.99-18.7c.01-.19.01-.3.01-.3,0,0-5.76-1.61-10-6Z" fill="#fff"/></svg>