<?xml version="1.0" encoding="UTF-8"?><svg id="p" xmlns="http://www.w3.org/2000/svg" width="64" height="64" viewBox="0 0 64 64"><rect x="4" y="6" width="52" height="36" rx="3" ry="3" fill="#5294d5"/><path d="M53,42H7c-1.657,0-3-1.343-3-3l22.926-15.872c1.849-1.28,4.299-1.28,6.148,0l22.926,15.872c0,1.657-1.343,3-3,3Z" fill="#457db3"/><path d="M53,6H7c-1.657,0-3,1.343-3,3l21.237,17.97c2.749,2.326,6.777,2.326,9.527,0l21.237-17.97c0-1.657-1.343-3-3-3Z" fill="#69afe8"/><path d="M56,11c0,21-26,31-48,31h44c2.209,0,4-1.791,4-4V11Z" fill="#325c7f" opacity=".5"/><path d="M53.3,38.5h-14.6c-1.765,0-3.2-1.436-3.2-3.2v-6.219c0-5.79,4.71-10.5,10.5-10.5s10.5,4.71,10.5,10.5v6.219c0,1.765-1.436,3.2-3.2,3.2ZM40.5,33.5h11v-4.419c0-3.033-2.467-5.5-5.5-5.5s-5.5,2.467-5.5,5.5v4.419Z" fill="#3a4a5c"/><path d="M53.3,39.419h-14.6c-1.765,0-3.2-1.39-3.2-3.099v-5.32h5v3.419h11v-3.419h5v5.32c0,1.708-1.436,3.099-3.2,3.099Z" fill="#2a3441"/><rect x="31" y="33" width="30" height="26" rx="4" ry="4" fill="#eac546"/><circle cx="46" cy="44" r="4" fill="#2a3441"/><path d="M44,47h4v5c0,1.104-.896,2-2,2h0c-1.104,0-2-.896-2-2v-5h0Z" fill="#2a3441"/><path d="M61,36.919c0,10.081-5,22.081-21,22.081h17c2.209,0,4-1.791,4-4v-18.081Z" fill="#e69f3d"/></svg>