<?xml version="1.0" encoding="UTF-8"?><svg id="e" xmlns="http://www.w3.org/2000/svg" width="64" height="64" viewBox="0 0 64 64"><circle cx="32" cy="32" r="29" fill="#5294d5"/><path d="M55.315,14.756c1.087,3.217,1.685,6.66,1.685,10.244,0,17.673-14.327,32-32,32-3.584,0-7.027-.598-10.244-1.685,4.82,3.571,10.785,5.685,17.244,5.685,16.016,0,29-12.984,29-29,0-6.459-2.114-12.424-5.685-17.244Z" fill="#457db3" fill-rule="evenodd"/><circle cx="32" cy="32" r="22" fill="#fff"/><path d="M33,49c-1.657,0-3-1.343-3-3v-14c-1.657,0-3-1.343-3-3s1.343-3,3-3h3c1.657,0,3,1.343,3,3v17c0,1.657-1.343,3-3,3Z" fill="#323f4f"/><path d="M33,23.5c-.23,0-.46-.021-.68-.07-.23-.04-.45-.11-.66-.2s-.41-.189-.6-.319c-.19-.13-.37-.271-.54-.44-.65-.65-1.02-1.55-1.02-2.47,0-.23.02-.46.07-.681.04-.229.11-.449.2-.659.09-.21.19-.41.32-.601.13-.2.27-.37.43-.54.17-.16.35-.3.54-.43.19-.13.39-.24.6-.32.21-.09.43-.16.66-.2,1.13-.229,2.34.141,3.16.95.16.17.301.34.431.54.13.19.229.391.319.601s.16.43.2.659c.05.221.07.45.07.681,0,.92-.37,1.819-1.021,2.47-.66.66-1.56,1.03-2.479,1.03Z" fill="#323f4f"/></svg>