<?xml version="1.0" encoding="UTF-8"?><svg id="h" xmlns="http://www.w3.org/2000/svg" width="64" height="64" viewBox="0 0 64 64"><rect x="4" y="19" width="56" height="38" rx="4" ry="4" fill="#eac546"/><polygon points="27 2 17 2 27 19 37 19 27 2" fill="#457db3" fill-rule="evenodd"/><polygon points="37 2 47 2 37 19 27 19 37 2" fill="#5294d5" fill-rule="evenodd"/><path d="M25,16h14c1.104,0,2,.896,2,2v6h-18v-6c0-1.104.896-2,2-2Z" fill="#3a4a5c"/><path d="M60,27c0,21-18,30-45,30h43c1.105,0,2-.895,2-2v-28Z" fill="#e69f3d" fill-rule="evenodd"/><rect x="11" y="29" width="18" height="22" rx="2" ry="2" fill="#fff"/><path d="M27,50.354v-1.438c0-1.849-3.4-3.112-5.3-3.112h-3.431c-1.869,0-5.269,1.262-5.269,3.112v1.438c0,.352.306.646.674.646h12.652c.368,0,.674-.294.674-.646h0Z" fill="#5294d5" fill-rule="evenodd"/><rect x="17.87" y="43.119" width="4.261" height="4.304" fill="#efac92"/><path d="M16.551,40.043h6.899c.448,0,.812.364.812.812h0c0,.896-.727,1.623-1.623,1.623h-5.275c-.896,0-1.623-.727-1.623-1.623h0c0-.448.364-.812.812-.812Z" fill="#efac92"/><path d="M19.985,37.312h0c2.027,0,3.667,1.355,3.667,3.018v1.078c0,1.663-1.641,4.157-3.667,4.157h0c-1.995,0-3.667-2.494-3.667-4.157v-1.078c0-1.663,1.673-3.018,3.667-3.018h0Z" fill="#f7cfb8" fill-rule="evenodd"/><path d="M19.985,37.312c-.098,0-.195.006-.292.012,1.892.125,3.381,1.467,3.381,3.101v1.112c0,1.317-.969,3.136-2.336,3.911,1.665-.508,2.914-2.591,2.914-4.041v-1.078c0-1.663-1.641-3.018-3.667-3.018Z" fill="#efac92" fill-rule="evenodd"/><path d="M24.216,36.54c-.088-.039-.182-.046-.267-.079,0-.007.002-.016.002-.023.026-.697-.023-.686-.444-.686-.877,0-1.409-.578-3.471-.578-1.678,0-2.491.552-2.844.913-.634,0-1.148.514-1.148,1.148v3.721c0,.168.136.304.304.304s.304-.136.304-.304v-.913c0-.269.174-.497.416-.578.203-.068.405-.143.568-.282.358-.304.537-.662.537-.662,0,0,.609.913,1.826.913h2.435c.504,0,.913.409.913.913v.913c0,.168.136.304.304.304s.304-.136.304-.304v-3.351c.29-.299.609-.722.609-.91q0-.304-.35-.46Z" fill="#d55846" fill-rule="evenodd"/><path d="M24.216,36.54c-.088-.039-.182-.046-.267-.079,0-.007.002-.016.002-.023.026-.697-.023-.686-.444-.686-.877,0-1.409-.578-3.471-.578-.096,0-.189.002-.28.006,1.792.057,2.155.907,2.983.907.421,0,.603,0,.603.351,0,.007-.002.016-.002.023.085.033.179.04.267.079q.35.156.35.46c0,.188-.318.611-.609.91v3.351c0,.168.136.304.304.304s.304-.136.304-.304v-3.351c.29-.299.609-.722.609-.91q0-.304-.35-.46Z" fill="#b04536" fill-rule="evenodd"/><path d="M17.935,45.241c-.734.576-.704,1.273-.704,1.273.551,1.031,1.162,1.849,1.713,2.273.337-.455.704-.909,1.04-1.364,0,0-1.377-.849-2.05-2.182h0Z" fill="#457db3" fill-rule="evenodd"/><path d="M22.034,45.241c.765.576.704,1.273.704,1.273-.52,1.031-1.162,1.849-1.683,2.273-.367-.455-.704-.909-1.071-1.364,0,0,1.407-.849,2.05-2.182h0Z" fill="#457db3" fill-rule="evenodd"/><path d="M26.326,51c.368,0,.674-.294.674-.646v-1.438c0-.771-.592-1.44-1.42-1.958-.251,1.601-1.92,4.038-10.893,4.042h11.639Z" fill="#457db3" fill-rule="evenodd"/><path d="M52,32h-17c-.553,0-1-.448-1-1s.447-1,1-1h17c.553,0,1,.448,1,1s-.447,1-1,1Z" fill="#3a4a5c"/><path d="M52,38h-17c-.553,0-1-.447-1-1s.447-1,1-1h17c.553,0,1,.447,1,1s-.447,1-1,1Z" fill="#3a4a5c"/><path d="M52,44h-17c-.553,0-1-.447-1-1s.447-1,1-1h17c.553,0,1,.447,1,1s-.447,1-1,1Z" fill="#3a4a5c"/><path d="M52,50h-17c-.553,0-1-.447-1-1s.447-1,1-1h17c.553,0,1,.447,1,1s-.447,1-1,1Z" fill="#3a4a5c"/></svg>