<?xml version="1.0" encoding="UTF-8"?><svg id="c" xmlns="http://www.w3.org/2000/svg" width="64" height="64" viewBox="0 0 64 64"><rect x="7" y="2" width="42" height="38" rx="2" ry="2" fill="#edf0f1"/><path d="M36,10h-16c-.553,0-1-.447-1-1s.447-1,1-1h16c.553,0,1,.447,1,1s-.447,1-1,1Z" fill="#323f4f"/><path d="M42,17H14c-.553,0-1-.447-1-1s.447-1,1-1h28c.553,0,1,.447,1,1s-.447,1-1,1Z" fill="#323f4f"/><path d="M42,24H14c-.553,0-1-.447-1-1s.447-1,1-1h28c.553,0,1,.447,1,1s-.447,1-1,1Z" fill="#323f4f"/><path d="M26,24H7v12c0,1.105.895,2,2,2h38c1.105,0,2-.895,2-2v-19h-14.127c-1.199,0-2.35.476-3.198,1.325l-5.675,5.675Z" fill="#2a3441" fill-rule="evenodd" opacity=".2"/><path d="M51,56H5c-1.105,0-2-.895-2-2v-25c0-1.105.895-2,2-2h23l5.675-5.675c.848-.848,1.998-1.325,3.198-1.325h14.127c1.105,0,2,.895,2,2v32c0,1.105-.895,2-2,2Z" fill="#e69f3d" fill-rule="evenodd"/><path d="M13,44h-4c-.553,0-1-.447-1-1s.447-1,1-1h4c.553,0,1,.447,1,1s-.447,1-1,1Z" fill="#323f4f"/><path d="M27,48H9c-.553,0-1-.447-1-1s.447-1,1-1h18c.553,0,1,.447,1,1s-.447,1-1,1Z" fill="#323f4f"/><path d="M20,52h-11c-.553,0-1-.447-1-1s.447-1,1-1h11c.553,0,1,.447,1,1s-.447,1-1,1Z" fill="#323f4f"/><path d="M53,26c0,24-21,30-42,30h40c1.105,0,2-.889,2-1.993,0-6.834,0-28.852,0-28.007Z" fill="#d7823d" fill-rule="evenodd"/><path d="M53.3,40.5h-14.6c-1.765,0-3.2-1.436-3.2-3.2v-6.219c0-5.79,4.71-10.5,10.5-10.5s10.5,4.71,10.5,10.5v6.219c0,1.765-1.436,3.2-3.2,3.2ZM40.5,35.5h11v-4.419c0-3.032-2.468-5.5-5.5-5.5s-5.5,2.468-5.5,5.5v4.419Z" fill="#3a4a5c"/><path d="M53.3,41.419h-14.6c-1.765,0-3.2-1.39-3.2-3.099v-5.32h5v3.419h11v-3.419h5v5.32c0,1.709-1.436,3.099-3.2,3.099Z" fill="#2a3441"/><rect x="31" y="35" width="30" height="26" rx="4" ry="4" fill="#eac546"/><circle cx="46" cy="46" r="4" fill="#2a3441"/><path d="M44,49h4v5c0,1.104-.896,2-2,2h0c-1.104,0-2-.896-2-2v-5h0Z" fill="#2a3441"/><path d="M61,38.919c0,10.081-5,22.081-21,22.081h17c2.209,0,4-1.791,4-4v-18.081Z" fill="#e69f3d"/></svg>