<?xml version="1.0" encoding="UTF-8"?><svg id="o" xmlns="http://www.w3.org/2000/svg" width="64" height="64" viewBox="0 0 64 64"><path d="M6,10h49v42H8c-1.104,0-2-.896-2-2V10h0Z" fill="#9b642f"/><path d="M52,10h3v42h-1c-1.104,0-2-.896-2-2V10h0Z" fill="#7f5029"/><rect x="4" y="4" width="53" height="7" rx="1" ry="1" fill="#9b642f"/><rect x="4" y="4" width="50" height="7" rx="1" ry="1" fill="#ad733c"/><rect x="14" y="17" width="33" height="7" rx="1" ry="1" fill="#edf0f1"/><rect x="18" y="17" width="29" height="7" rx="1" ry="1" fill="#fff"/><path d="M62,39.919c0,10.081-5,22.081-21,22.081h17c2.209,0,4-1.791,4-4v-18.081Z" fill="#e69f3d"/><path d="M14,52c21.235,0,38-21.333,38-32v32H14Z" fill="#7f5029"/><path d="M54.3,41.419h-14.6c-1.765,0-3.2-1.436-3.2-3.2v-6.219c0-5.79,4.71-10.5,10.5-10.5s10.5,4.71,10.5,10.5v6.219c0,1.764-1.436,3.2-3.2,3.2ZM41.5,36.419h11v-4.419c0-3.033-2.468-5.5-5.5-5.5s-5.5,2.467-5.5,5.5v4.419Z" fill="#3a4a5c"/><path d="M54.3,42.338h-14.6c-1.765,0-3.2-1.39-3.2-3.099v-5.32h5v3.419h11v-3.419h5v5.32c0,1.709-1.436,3.099-3.2,3.099Z" fill="#2a3441"/><rect x="32" y="35.919" width="30" height="26" rx="4" ry="4" fill="#eac546"/><circle cx="47" cy="46.919" r="4" fill="#2a3441"/><path d="M45,49.919h4v5c0,1.104-.896,2-2,2h0c-1.104,0-2-.896-2-2v-5h0Z" fill="#2a3441"/><path d="M62,40c0,10.081-5,22.081-21,22.081h17c2.209,0,4-1.791,4-4v-18.081Z" fill="#e69f3d"/></svg>