<?xml version="1.0" encoding="UTF-8"?><svg id="g" xmlns="http://www.w3.org/2000/svg" width="64" height="64" viewBox="0 0 64 64"><rect x="4" y="5" width="42" height="52" rx="2" ry="2" fill="#eac546"/><path d="M25,43h21V7c0-1.105-.896-2-2-2h-21v36c0,1.104.896,2,2,2Z" fill="#e69f3d" fill-rule="evenodd"/><path d="M48,61H10c-1.105,0-2-.895-2-2V11c0-1.105.895-2,2-2h38c1.105,0,2,.895,2,2v48c0,1.105-.895,2-2,2Z" fill="#edf0f1" fill-rule="evenodd"/><path d="M32,19h-15c-.552,0-1-.447-1-1s.448-1,1-1h15c.552,0,1,.447,1,1s-.448,1-1,1Z" fill="#3a4a5c"/><path d="M41,26h-24c-.552,0-1-.447-1-1s.448-1,1-1h24c.552,0,1,.447,1,1s-.448,1-1,1Z" fill="#3a4a5c"/><path d="M41,33h-24c-.552,0-1-.447-1-1s.448-1,1-1h24c.552,0,1,.447,1,1s-.448,1-1,1Z" fill="#3a4a5c"/><path d="M41,40h-24c-.552,0-1-.447-1-1s.448-1,1-1h24c.552,0,1,.447,1,1s-.448,1-1,1Z" fill="#3a4a5c"/><path d="M41,47h-24c-.552,0-1-.447-1-1s.448-1,1-1h24c.552,0,1,.447,1,1s-.448,1-1,1Z" fill="#3a4a5c"/><path d="M41,54h-24c-.552,0-1-.447-1-1s.448-1,1-1h24c.552,0,1,.447,1,1s-.448,1-1,1Z" fill="#3a4a5c"/><path d="M48,9h-25v33c0,1.104.896,2,2,2h21.73c0,16-20.896,17-33.73,17h35c1.104,0,2-.896,2-2V11c0-1.105-.896-2-2-2Z" fill="#2a3441" fill-rule="evenodd" opacity=".2"/><rect x="26" y="3" width="35" height="38" rx="2" ry="2" fill="#edf0f1"/><path d="M28,3h31c1.104,0,2,.896,2,2v5H26v-5c0-1.104.896-2,2-2Z" fill="#3a4a5c"/><circle cx="57.5" cy="6.5" r="1.5" fill="#d55846"/><circle cx="53.5" cy="6.5" r="1.5" fill="#eac546"/><circle cx="49.5" cy="6.5" r="1.5" fill="#64c879"/><rect x="34" y="30" width="5" height="5" rx="1" ry="1" fill="#5294d5"/><rect x="34" y="24" width="5" height="5" rx="1" ry="1" fill="#5294d5"/><rect x="34" y="18" width="5" height="5" rx="1" ry="1" fill="#5294d5"/><rect x="40" y="30" width="5" height="5" rx="1" ry="1" fill="#5294d5"/><rect x="40" y="24" width="5" height="5" rx="1" ry="1" fill="#5294d5"/><rect x="46" y="30" width="5" height="5" rx="1" ry="1" fill="#5294d5"/><rect x="48" y="23" width="5" height="5" rx="1" ry="1" fill="#5294d5"/><rect x="42" y="16" width="5" height="5" rx="1" ry="1" fill="#5294d5"/><rect x="50" y="15" width="5" height="5" rx="1" ry="1" fill="#5294d5"/><path d="M61,25c0,9-2,15-9,16h7c1.105,0,2-.895,2-2v-14Z" fill="#2a3441" fill-rule="evenodd" opacity=".2"/></svg>