<?xml version="1.0" encoding="UTF-8"?><svg id="j" xmlns="http://www.w3.org/2000/svg" width="64" height="64" viewBox="0 0 64 64"><rect x="2" y="6" width="56" height="30" rx="4" ry="4" fill="#eac546"/><path d="M58,10c0,12-18,26-50,26h48c1.105,0,2-.895,2-2V10Z" fill="#e69f3d" fill-rule="evenodd"/><rect x="5" y="9" width="50" height="24" rx="2" ry="2" fill="#fff"/><path d="M14,14h-4c-.552,0-1-.448-1-1s.448-1,1-1h4c.552,0,1,.448,1,1s-.448,1-1,1Z" fill="#323f4f"/><path d="M14,30h-4c-.552,0-1-.448-1-1s.448-1,1-1h4c.552,0,1,.448,1,1s-.448,1-1,1Z" fill="#323f4f"/><path d="M12,30c-.552,0-1-.448-1-1V13c0-.552.448-1,1-1s1,.448,1,1v16c0,.552-.448,1-1,1Z" fill="#323f4f"/><path d="M31.703,33h21.297c1.104,0,2-.896,2-2v-12.333c-3.991,5.781-11.898,11.147-23.297,14.333Z" fill="#edf0f1" fill-rule="evenodd"/><circle cx="43" cy="40" r="19" fill="#5294d5"/><path d="M54.17,24.654h-.208c-2.923.731-3.654,3.654-5.115,4.385-1.462.731-2.193,2.923-1.462,2.923s2.923-2.192,4.385-2.192,1.462.731,2.923,1.462c1.461.731,3.654,1.461,3.654,2.192s-1.462.731-2.193.731-2.923-.731-2.923,0-2.923-1.462-3.654-.731c-.731.731-4.385,2.192-5.115,2.923-.731.731-.731,2.923.731,4.385,1.461,1.461,5.846-.731,6.577.731s0,2.192.731,3.654c.731,1.462,1.462,2.192.731,3.654s2.192,5.115,2.192,5.115c.139.042.272.06.41.098,3.782-3.473,6.167-8.443,6.167-13.982,0-6.313-3.092-11.891-7.83-15.346Z" fill="#6ce480"/><path d="M46.603,21.352c-1.168-.224-2.37-.352-3.603-.352-.745,0-1.476.054-2.198.137-.019.369-.124,1.454-.725,2.055-.731.731,0,4.385.731,2.923.691-1.382,5.295-2.764,5.796-4.764Z" fill="#6ce480"/><path d="M36.545,54.615c0-.731,2.923-2.923,2.923-3.654s0-1.462.731-2.192c.731-.731,3.045-1.462,3.045-2.923s-3.775-3.045-4.506-3.776-.731-.731-1.461-1.462c-.731-.731-.731,0-2.192-1.461-1.462-1.462-3.832-.435-4.563-1.897-.731-1.461-2.136-.904-1.405-3.097.731-2.192,3.654-1.462,3.654-3.654s3.654-.731,4.385-2.192c.731-1.461-1.461-2.192-2.923-2.192-1.441,0-2.882,3.536-4.322.137-2.055,1.957-3.663,4.368-4.68,7.074.081.031.149.066.233.097.97.355,2.314,3.654,2.314,5.115s2.192,1.462,2.923,2.192c.731.731-.731,2.192,0,5.115.731,2.923,2.923,2.923,2.923,5.115s2.923,4.385,2.923,3.654Z" fill="#6ce480"/><path d="M58.796,29.444c.13,1.001.204,2.02.204,3.056,0,12.979-10.521,23.5-23.5,23.5-1.037,0-2.055-.074-3.056-.204,3.02,2.022,6.649,3.204,10.556,3.204,10.493,0,19-8.507,19-19,0-3.907-1.182-7.537-3.204-10.556Z" fill="#2a3441" opacity=".2"/></svg>