<?xml version="1.0" encoding="UTF-8"?><svg id="m" xmlns="http://www.w3.org/2000/svg" width="64" height="64" viewBox="0 0 64 64"><path d="M48,51.877v-4.726c0-6.077-11.173-10.224-17.414-10.224h-11.274c-6.14,0-17.313,4.148-17.313,10.224v4.726c0,1.157,1.007,2.122,2.214,2.122h41.571c1.208,0,2.214-.965,2.214-2.122h0Z" fill="#d55846" fill-rule="evenodd"/><rect x="18" y="28.106" width="14" height="14.142" fill="#efac92"/><path d="M13,17.999h24c1.104,0,2,.896,2,2v2c0,2.208-1.792,4-4,4H15c-2.208,0-4-1.792-4-4v-2c0-1.104.896-2,2-2Z" fill="#efac92"/><path d="M24.95,9.025h0c6.659,0,12.05,4.452,12.05,9.915v3.541c0,5.464-5.391,13.659-12.05,13.659h0c-6.554,0-12.05-8.195-12.05-13.659v-3.541c0-5.464,5.497-9.915,12.05-9.915h0Z" fill="#f7cfb8" fill-rule="evenodd"/><path d="M24.95,9.025c-.323,0-.641.019-.958.041,6.217.41,11.109,4.821,11.109,10.189v3.653c0,4.328-3.184,10.304-7.675,12.852,5.47-1.668,9.574-8.512,9.574-13.279v-3.541c0-5.464-5.391-9.915-12.05-9.915Z" fill="#efac92" fill-rule="evenodd"/><path d="M38.851,6.488c-.29-.129-.597-.151-.877-.26.001-.024.006-.053.007-.075.086-2.291-.075-2.253-1.457-2.253-2.883,0-4.63-1.9-11.406-1.9-5.514,0-8.185,1.815-9.345,2.999-2.084,0-3.773,1.689-3.773,3.773v12.227c0,.552.448,1,1,1s1-.448,1-1v-3c0-.884.573-1.633,1.368-1.898.666-.222,1.332-.471,1.867-.926,1.177-1,1.765-2.176,1.765-2.176,0,0,2,3,6,3h8c1.657,0,3,1.343,3,3v3c0,.552.448,1,1,1s1-.448,1-1v-11.01c.954-.982,2-2.373,2-2.99q0-1-1.149-1.511Z" fill="#3a4a5c" fill-rule="evenodd"/><path d="M38.851,6.488c-.29-.129-.597-.151-.877-.26.001-.024.006-.053.007-.075.086-2.291-.075-2.253-1.457-2.253-2.883,0-4.63-1.9-11.406-1.9-.317,0-.622.008-.92.019,5.888.189,7.08,2.981,9.802,2.981,1.383,0,1.981,0,1.981,1.153,0,.022-.005.052-.007.075.279.109.587.131.877.26q1.149.511,1.149,1.511c0,.617-1.046,2.008-2,2.99v11.01c0,.552.448,1,1,1s1-.448,1-1v-11.01c.954-.982,2-2.373,2-2.99q0-1-1.149-1.511Z" fill="#2a3441" fill-rule="evenodd"/><path d="M18.215,35.077c-2.412,1.892-2.312,4.183-2.312,4.183,1.809,3.386,3.82,6.075,5.629,7.469,1.106-1.494,2.312-2.988,3.418-4.482,0,0-4.523-2.789-6.735-7.17h0Z" fill="#b04536" fill-rule="evenodd"/><path d="M31.684,35.077c2.513,1.892,2.312,4.183,2.312,4.183-1.709,3.386-3.82,6.075-5.528,7.469-1.206-1.494-2.312-2.988-3.518-4.482,0,0,4.624-2.789,6.735-7.17h0Z" fill="#b04536" fill-rule="evenodd"/><path d="M45.786,53.999c1.208,0,2.214-.965,2.214-2.122v-4.726c0-2.534-1.947-4.731-4.665-6.434-.825,5.262-6.309,13.268-35.791,13.282h38.242Z" fill="#b04536" fill-rule="evenodd"/><polygon points="54 55 52 53 54 51 52 49 54 47 52 45 54 43 54 37 46 37 46 59 50 63 54 59 52 57 54 55" fill="#eac546"/><path d="M50,64c-.256,0-.512-.098-.707-.293l-4-4c-.188-.188-.293-.442-.293-.707v-22c0-.552.447-1,1-1h8c.553,0,1,.448,1,1v6c0,.265-.105.52-.293.707l-1.293,1.293,1.293,1.293c.391.391.391,1.023,0,1.414l-1.293,1.293,1.293,1.293c.391.391.391,1.023,0,1.414l-1.293,1.293,1.293,1.293c.391.391.391,1.023,0,1.414l-1.293,1.293,1.293,1.293c.391.391.391,1.023,0,1.414l-4,4c-.195.195-.451.293-.707.293ZM47,58.586l3,3,2.586-2.586-1.293-1.293c-.391-.391-.391-1.023,0-1.414l1.293-1.293-1.293-1.293c-.391-.391-.391-1.023,0-1.414l1.293-1.293-1.293-1.293c-.391-.391-.391-1.023,0-1.414l1.293-1.293-1.293-1.293c-.391-.391-.391-1.023,0-1.414l1.707-1.707v-4.586h-6v20.586Z" fill="#eac546"/><path d="M48,56c-.553,0-1-.448-1-1v-17c0-.552.447-1,1-1s1,.448,1,1v17c0,.552-.447,1-1,1Z" fill="#e69f3d"/><circle cx="50" cy="29" r="11" fill="#eac546"/><circle cx="50" cy="24" r="2" fill="#fff"/><circle cx="13" cy="53" r="9" fill="#4fabe5"/><path d="M12,58c-.4,0-.762-.238-.919-.606l-3-7c-.218-.508.018-1.096.525-1.313.504-.218,1.095.017,1.312.525l2.081,4.855,2.081-4.855c.217-.508.809-.742,1.312-.525.508.217.743.805.525,1.313l-3,7c-.157.368-.519.606-.919.606Z" fill="#fff"/><path d="M16,58.5c-.276,0-.5-.224-.5-.5v-2.793l-.146.146c-.195.195-.512.195-.707,0s-.195-.512,0-.707l1-1c.144-.143.358-.187.545-.108.187.077.309.26.309.462v4c0,.276-.224.5-.5.5Z" fill="#fff"/><path d="M17,58.5h-2c-.276,0-.5-.224-.5-.5s.224-.5.5-.5h2c.276,0,.5.224.5.5s-.224.5-.5.5Z" fill="#fff"/><path d="M58.498,22.016c.321,1.107.502,2.273.502,3.484,0,6.904-5.596,12.5-12.5,12.5-1.21,0-2.377-.181-3.484-.502,1.9,1.563,4.332,2.502,6.984,2.502,6.075,0,11-4.925,11-11,0-2.652-.939-5.084-2.502-6.984Z" fill="#e69f3d"/></svg>