<?xml version="1.0" encoding="UTF-8"?><svg id="d" xmlns="http://www.w3.org/2000/svg" width="64" height="64" viewBox="0 0 64 64"><path d="M47,2h-24c-1.105,0-2,.895-2,2v38c0,1.105.895,2,2,2h30c1.105,0,2-.895,2-2V10l-8-8Z" fill="#edf0f1" fill-rule="evenodd"/><path d="M55,10h-6c-1.105,0-2-.895-2-2V2l4,4,4,4Z" fill="#bdc2c5" fill-rule="evenodd"/><path d="M55,14c0,13-7,31-27,31h27V14Z" fill="#bdc2c5" fill-rule="evenodd"/><rect x="37" y="13" width="25" height="12" rx="2" ry="2" fill="#d55846"/><path d="M62,15c0,7-7,10-14,10h12c1.105,0,2-.895,2-2v-8Z" fill="#b04536" fill-rule="evenodd"/><rect x="4" y="15" width="36" height="42" rx="3" ry="3" fill="#5294d5"/><path d="M40,21c0,22-12,36-33,36h30c1.657,0,3-1.343,3-3V21Z" fill="#457db3" fill-rule="evenodd"/><rect x="6" y="17" width="32" height="38" rx="1" ry="1" fill="#fff"/><path d="M27,53.5h-10c-.276,0-.5-.224-.5-.5s.224-.5.5-.5h10c.276,0,.5.224.5.5s-.224.5-.5.5Z" fill="#3a4a5c"/><path d="M19.599,55h17.401c.552,0,1-.448,1-1v-18.76c-2.992,9.659-9.28,16.564-18.401,19.76Z" fill="#2a3441" fill-rule="evenodd" opacity=".2"/><path d="M32,42.77v-2.158c0-2.774-5.101-4.668-7.95-4.668h-5.147c-2.803,0-7.904,1.893-7.904,4.668v2.158c0,.528.46.969,1.011.969h18.978c.551,0,1.011-.44,1.011-.969h0Z" fill="#d55846" fill-rule="evenodd"/><rect x="18.304" y="31.918" width="6.391" height="6.456" fill="#efac92"/><path d="M16.152,27.304h10.696c.576,0,1.043.468,1.043,1.043v.522c0,1.152-.935,2.087-2.087,2.087h-8.609c-1.152,0-2.087-.935-2.087-2.087v-.522c0-.576.468-1.043,1.043-1.043Z" fill="#efac92"/><path d="M21.477,23.207h0c3.04,0,5.501,2.032,5.501,4.527v1.617c0,2.494-2.461,6.236-5.501,6.236h0c-2.992,0-5.501-3.741-5.501-6.236v-1.617c0-2.494,2.509-4.527,5.501-4.527h0Z" fill="#f7cfb8" fill-rule="evenodd"/><path d="M21.477,23.207c-.147,0-.293.009-.437.019,2.838.187,5.071,2.201,5.071,4.652v1.668c0,1.976-1.453,4.704-3.504,5.867,2.497-.762,4.371-3.886,4.371-6.062v-1.617c0-2.494-2.461-4.527-5.501-4.527Z" fill="#efac92" fill-rule="evenodd"/><path d="M27.823,22.049c-.132-.059-.273-.069-.4-.119,0-.011.003-.024.003-.034.039-1.046-.034-1.029-.665-1.029-1.316,0-2.114-.867-5.207-.867-2.517,0-3.737.828-4.266,1.369-.951,0-1.723.771-1.723,1.723v5.582c0,.252.204.457.457.457s.457-.204.457-.457v-1.37c0-.403.262-.746.624-.866.304-.101.608-.215.852-.423.537-.456.806-.993.806-.993,0,0,.913,1.37,2.739,1.37h3.652c.756,0,1.37.613,1.37,1.37v1.37c0,.252.204.457.457.457s.457-.204.457-.457v-5.026c.436-.448.913-1.083.913-1.365q0-.457-.524-.69Z" fill="#3a4a5c" fill-rule="evenodd"/><path d="M27.823,22.049c-.132-.059-.273-.069-.4-.119,0-.011.003-.024.003-.034.039-1.046-.034-1.029-.665-1.029-1.316,0-2.114-.867-5.207-.867-.145,0-.284.003-.42.009,2.688.086,3.232,1.361,4.475,1.361.631,0,.904,0,.904.526,0,.01-.002.024-.003.034.128.05.268.06.4.119q.524.233.524.69c0,.282-.477.917-.913,1.365v5.026c0,.252.204.457.457.457s.457-.204.457-.457v-5.026c.436-.448.913-1.083.913-1.365q0-.457-.524-.69Z" fill="#2a3441" fill-rule="evenodd"/><path d="M18.403,35.101c-1.101.864-1.055,1.91-1.055,1.91.826,1.546,1.744,2.773,2.57,3.41.505-.682,1.055-1.364,1.56-2.046,0,0-2.065-1.273-3.074-3.273h0Z" fill="#b04536" fill-rule="evenodd"/><path d="M24.552,35.101c1.147.864,1.055,1.91,1.055,1.91-.78,1.546-1.744,2.773-2.524,3.41-.551-.682-1.055-1.364-1.606-2.046,0,0,2.111-1.273,3.074-3.273h0Z" fill="#b04536" fill-rule="evenodd"/><path d="M30.989,43.739c.551,0,1.011-.44,1.011-.969v-2.158c0-1.157-.889-2.16-2.13-2.937-.377,2.402-2.88,6.057-16.339,6.064h17.458Z" fill="#b04536" fill-rule="evenodd"/><circle cx="34.5" cy="20.5" r="1.5" fill="#d55846"/><path d="M53.3,40.5h-14.6c-1.765,0-3.2-1.436-3.2-3.2v-6.219c0-5.79,4.71-10.5,10.5-10.5s10.5,4.71,10.5,10.5v6.219c0,1.765-1.436,3.2-3.2,3.2ZM40.5,35.5h11v-4.419c0-3.032-2.468-5.5-5.5-5.5s-5.5,2.468-5.5,5.5v4.419Z" fill="#3a4a5c"/><path d="M53.3,41.419h-14.6c-1.765,0-3.2-1.39-3.2-3.099v-5.32h5v3.419h11v-3.419h5v5.32c0,1.709-1.436,3.099-3.2,3.099Z" fill="#2a3441"/><rect x="31" y="35" width="30" height="26" rx="4" ry="4" fill="#eac546"/><circle cx="46" cy="46" r="4" fill="#2a3441"/><path d="M44,49h4v5c0,1.104-.896,2-2,2h0c-1.104,0-2-.896-2-2v-5h0Z" fill="#2a3441"/><path d="M61,38.919c0,10.081-5,22.081-21,22.081h17c2.209,0,4-1.791,4-4v-18.081Z" fill="#e69f3d"/></svg>