<?xml version="1.0" encoding="UTF-8"?><svg id="f" xmlns="http://www.w3.org/2000/svg" width="64" height="64" viewBox="0 0 64 64"><path d="M48.743,21.497l-2.496-.998c-.473-1.745-1.158-3.398-2.038-4.931l1.057-2.466c.322-.752.154-1.624-.424-2.202l-1.871-1.871-1.871-1.871c-.578-.578-1.45-.746-2.202-.424l-2.466,1.057c-1.533-.88-3.186-1.565-4.931-2.038l-.998-2.496c-.304-.759-1.039-1.257-1.857-1.257h-5.292c-.818,0-1.553.498-1.857,1.257l-.998,2.496c-1.745.473-3.398,1.158-4.931,2.038l-2.466-1.057c-.752-.322-1.624-.154-2.202.424l-1.871,1.871-1.871,1.871c-.578.578-.746,1.45-.424,2.202l1.057,2.466c-.88,1.533-1.565,3.186-2.038,4.931l-2.496.998c-.759.304-1.257,1.039-1.257,1.857v5.292c0,.818.498,1.553,1.257,1.857l2.496.998c.473,1.745,1.158,3.398,2.038,4.931l-1.057,2.466c-.322.752-.154,1.624.424,2.202l1.871,1.871,1.871,1.871c.578.578,1.45.746,2.202.424l2.466-1.057c1.533.88,3.186,1.565,4.931,2.038l.998,2.496c.304.759,1.039,1.257,1.857,1.257h5.292c.818,0,1.553-.498,1.857-1.257l.998-2.496c1.745-.473,3.398-1.158,4.931-2.038l2.466,1.057c.752.322,1.624.154,2.202-.424l1.871-1.871,1.871-1.871c.578-.578.746-1.45.424-2.202l-1.057-2.466c.88-1.533,1.565-3.186,2.038-4.931l2.496-.998c.759-.304,1.257-1.039,1.257-1.857v-5.292c0-.818-.498-1.553-1.257-1.857Z" fill="#5294d5" fill-rule="evenodd"/><path d="M48.743,21.497l-2.496-.998c-.194-.714-.432-1.409-.696-2.091-.202,1.225-.495,2.417-.827,3.592h-3.15c-.75,0-1.424.456-1.702,1.152l-.915,2.288c-1.599.434-3.115,1.062-4.52,1.868l-2.26-.969c-.689-.295-1.488-.141-2.019.389l-1.715,1.715-1.715,1.715c-.53.53-.684,1.329-.389,2.019l.969,2.26c-.807,1.405-1.434,2.92-1.868,4.52l-2.288.915c-.696.278-1.152.953-1.152,1.702v3.15c-1.175.333-2.367.625-3.592.827.682.264,1.377.502,2.091.696l.998,2.496c.304.759,1.039,1.257,1.857,1.257h5.292c.818,0,1.553-.498,1.857-1.257l.998-2.496c1.745-.473,3.398-1.158,4.931-2.038l2.466,1.057c.752.322,1.624.154,2.202-.424l1.871-1.871,1.871-1.871c.578-.578.746-1.45.424-2.202l-1.057-2.466c.88-1.533,1.565-3.186,2.038-4.931l2.496-.998c.759-.304,1.257-1.039,1.257-1.857v-5.292c0-.818-.498-1.553-1.257-1.857Z" fill="#457db3" fill-rule="evenodd"/><circle cx="26" cy="26" r="12" fill="#fff"/><path d="M61.057,40.623l-1.872-.749c-.355-1.308-.868-2.548-1.529-3.698l.792-1.849c.242-.564.116-1.218-.318-1.652l-1.403-1.403-1.403-1.403c-.434-.434-1.088-.56-1.652-.318l-1.849.792c-1.15-.66-2.39-1.174-3.698-1.529l-.749-1.872c-.228-.57-.779-.943-1.393-.943h-3.969c-.613,0-1.165.373-1.393.943l-.749,1.872c-1.308.355-2.548.868-3.698,1.529l-1.849-.792c-.564-.242-1.218-.116-1.652.318l-1.403,1.403-1.403,1.403c-.434.434-.56,1.088-.318,1.652l.792,1.849c-.66,1.15-1.174,2.39-1.529,3.698l-1.872.749c-.57.228-.943.779-.943,1.393v3.969c0,.613.373,1.165.943,1.393l1.872.749c.355,1.308.868,2.548,1.529,3.698l-.792,1.849c-.242.564-.116,1.218.318,1.652l1.403,1.403,1.403,1.403c.434.434,1.088.56,1.652.318l1.849-.792c1.15.66,2.39,1.174,3.698,1.529l.749,1.872c.228.57.779.943,1.393.943h3.969c.613,0,1.165-.373,1.393-.943l.749-1.872c1.308-.355,2.548-.868,3.698-1.529l1.849.792c.564.242,1.218.116,1.652-.318l1.403-1.403,1.403-1.403c.434-.434.56-1.088.318-1.652l-.792-1.849c.66-1.15,1.174-2.39,1.529-3.698l1.872-.749c.57-.228.943-.779.943-1.393v-3.969c0-.613-.373-1.165-.943-1.393Z" fill="#3a4a5c" fill-rule="evenodd"/><circle cx="44" cy="44" r="9" fill="#fff"/><path d="M61.057,40.623l-1.872-.749c-.145-.536-.324-1.057-.522-1.568-1.718,10.418-9.939,18.64-20.358,20.358.511.198,1.032.376,1.568.522l.749,1.872c.228.57.779.943,1.393.943h3.969c.613,0,1.165-.373,1.393-.943l.749-1.872c1.308-.355,2.548-.868,3.698-1.529l1.849.792c.564.242,1.218.116,1.652-.318l1.403-1.403,1.403-1.403c.434-.434.56-1.088.318-1.652l-.792-1.849c.66-1.15,1.174-2.39,1.529-3.698l1.872-.749c.57-.228.943-.779.943-1.393v-3.969c0-.613-.373-1.165-.943-1.393Z" fill="#2a3441" fill-rule="evenodd"/></svg>